<?xml version="1.0" encoding="UTF-8" standalone="no"?>
<!-- Generator: Adobe Illustrator 22.1.0, SVG Export Plug-In . SVG Version: 6.00 Build 0)  -->

<svg
   xmlns:dc="http://purl.org/dc/elements/1.1/"
   xmlns:cc="http://creativecommons.org/ns#"
   xmlns:rdf="http://www.w3.org/1999/02/22-rdf-syntax-ns#"
   xmlns:svg="http://www.w3.org/2000/svg"
   xmlns="http://www.w3.org/2000/svg"
   xmlns:sodipodi="http://sodipodi.sourceforge.net/DTD/sodipodi-0.dtd"
   xmlns:inkscape="http://www.inkscape.org/namespaces/inkscape"
   version="1.1"
   id="Calque_1"
   x="0px"
   y="0px"
   width="319.52942"
   height="293.49313"
   viewBox="0 0 319.52942 293.49313"
   xml:space="preserve"
   sodipodi:docname="windowsswift.svg"
   inkscape:version="0.92.3 (2405546, 2018-03-11)"><metadata
   id="metadata905"><rdf:RDF><cc:Work
       rdf:about=""><dc:format>image/svg+xml</dc:format><dc:type
         rdf:resource="http://purl.org/dc/dcmitype/StillImage" /><dc:title></dc:title></cc:Work></rdf:RDF></metadata><defs
   id="defs903"><linearGradient
     y2="37.505344"
     x1="18.752619"
     x2="18.752619"
     id="a"
     gradientTransform="matrix(10.665177,0,0,9.5569974,2.0147689,15.693103)"
     y1="0.00010563876"
     gradientUnits="userSpaceOnUse"><stop
       id="stop1565"
       offset="0"
       stop-color="#F88A36" /><stop
       id="stop1567"
       offset="1"
       stop-color="#FD2020" /></linearGradient><clipPath
     clipPathUnits="userSpaceOnUse"
     id="clipPath1699"><path
       id="path1701"
       d="M 267.93013,321.82958 C 229.13105,342.41985 176.7879,342.79649 125.01856,318.37039 83.097173,298.72654 48.913,265.75046 27.571242,228.7103 c 10.543721,9.44731 22.96377,17.15174 36.322251,23.97658 53.384517,27.40359 107.735537,27.61291 146.790677,5.34385 -0.0234,-0.0253 -0.0396,-0.0423 -0.0547,-0.0672 C 157.78091,214.3429 113.54072,158.33476 80.718695,112.71874 73.730039,105.21126 68.62106,95.957747 63.479507,87.610646 103.777,127.15103 168.17526,177.53142 191.23168,191.97096 143.3104,137.64083 101.26892,70.833192 103.01195,72.706248 c 75.938,82.542192 147.68146,130.471142 147.68146,130.471142 2.37781,1.45552 4.21,2.66309 5.6801,3.73532 1.7334,-3.98249 3.27691,-8.12673 4.60604,-12.43361 14.34189,-45.73853 1.74246,-98.798498 -28.40004,-143.412973 71.76795,47.020602 112.25394,131.912753 91.62476,201.008983 -0.54005,1.86433 -1.1199,3.70281 -1.73934,5.50718 0.20268,0.26011 0.40505,0.52832 0.60714,0.80472 34.59725,46.59319 22.9106,94.23759 18.70801,85.01826 -18.26929,-39.16411 -55.07281,-28.71196 -73.84913,-21.57485 z"
       style="fill:#000000;fill-opacity:1;stroke-width:8.14957428"
       inkscape:connector-curvature="0" /></clipPath><clipPath
     clipPathUnits="userSpaceOnUse"
     id="clipPath1703"><path
       id="path1705"
       d="M 267.93013,321.82958 C 229.13105,342.41985 176.7879,342.79649 125.01856,318.37039 83.097173,298.72654 48.913,265.75046 27.571242,228.7103 c 10.543721,9.44731 22.96377,17.15174 36.322251,23.97658 53.384517,27.40359 107.735537,27.61291 146.790677,5.34385 -0.0234,-0.0253 -0.0396,-0.0423 -0.0547,-0.0672 C 157.78091,214.3429 113.54072,158.33476 80.718695,112.71874 73.730039,105.21126 68.62106,95.957747 63.479507,87.610646 103.777,127.15103 168.17526,177.53142 191.23168,191.97096 143.3104,137.64083 101.26892,70.833192 103.01195,72.706248 c 75.938,82.542192 147.68146,130.471142 147.68146,130.471142 2.37781,1.45552 4.21,2.66309 5.6801,3.73532 1.7334,-3.98249 3.27691,-8.12673 4.60604,-12.43361 14.34189,-45.73853 1.74246,-98.798498 -28.40004,-143.412973 71.76795,47.020602 112.25394,131.912753 91.62476,201.008983 -0.54005,1.86433 -1.1199,3.70281 -1.73934,5.50718 0.20268,0.26011 0.40505,0.52832 0.60714,0.80472 34.59725,46.59319 22.9106,94.23759 18.70801,85.01826 -18.26929,-39.16411 -55.07281,-28.71196 -73.84913,-21.57485 z"
       style="fill:#000000;fill-opacity:1;stroke-width:8.14957428"
       inkscape:connector-curvature="0" /></clipPath><clipPath
     clipPathUnits="userSpaceOnUse"
     id="clipPath1707"><path
       id="path1709"
       d="M 267.93013,321.82958 C 229.13105,342.41985 176.7879,342.79649 125.01856,318.37039 83.097173,298.72654 48.913,265.75046 27.571242,228.7103 c 10.543721,9.44731 22.96377,17.15174 36.322251,23.97658 53.384517,27.40359 107.735537,27.61291 146.790677,5.34385 -0.0234,-0.0253 -0.0396,-0.0423 -0.0547,-0.0672 C 157.78091,214.3429 113.54072,158.33476 80.718695,112.71874 73.730039,105.21126 68.62106,95.957747 63.479507,87.610646 103.777,127.15103 168.17526,177.53142 191.23168,191.97096 143.3104,137.64083 101.26892,70.833192 103.01195,72.706248 c 75.938,82.542192 147.68146,130.471142 147.68146,130.471142 2.37781,1.45552 4.21,2.66309 5.6801,3.73532 1.7334,-3.98249 3.27691,-8.12673 4.60604,-12.43361 14.34189,-45.73853 1.74246,-98.798498 -28.40004,-143.412973 71.76795,47.020602 112.25394,131.912753 91.62476,201.008983 -0.54005,1.86433 -1.1199,3.70281 -1.73934,5.50718 0.20268,0.26011 0.40505,0.52832 0.60714,0.80472 34.59725,46.59319 22.9106,94.23759 18.70801,85.01826 -18.26929,-39.16411 -55.07281,-28.71196 -73.84913,-21.57485 z"
       style="fill:#000000;fill-opacity:1;stroke-width:8.14957428"
       inkscape:connector-curvature="0" /></clipPath><clipPath
     clipPathUnits="userSpaceOnUse"
     id="clipPath1711"><path
       id="path1713"
       d="M 267.93013,321.82958 C 229.13105,342.41985 176.7879,342.79649 125.01856,318.37039 83.097173,298.72654 48.913,265.75046 27.571242,228.7103 c 10.543721,9.44731 22.96377,17.15174 36.322251,23.97658 53.384517,27.40359 107.735537,27.61291 146.790677,5.34385 -0.0234,-0.0253 -0.0396,-0.0423 -0.0547,-0.0672 C 157.78091,214.3429 113.54072,158.33476 80.718695,112.71874 73.730039,105.21126 68.62106,95.957747 63.479507,87.610646 103.777,127.15103 168.17526,177.53142 191.23168,191.97096 143.3104,137.64083 101.26892,70.833192 103.01195,72.706248 c 75.938,82.542192 147.68146,130.471142 147.68146,130.471142 2.37781,1.45552 4.21,2.66309 5.6801,3.73532 1.7334,-3.98249 3.27691,-8.12673 4.60604,-12.43361 14.34189,-45.73853 1.74246,-98.798498 -28.40004,-143.412973 71.76795,47.020602 112.25394,131.912753 91.62476,201.008983 -0.54005,1.86433 -1.1199,3.70281 -1.73934,5.50718 0.20268,0.26011 0.40505,0.52832 0.60714,0.80472 34.59725,46.59319 22.9106,94.23759 18.70801,85.01826 -18.26929,-39.16411 -55.07281,-28.71196 -73.84913,-21.57485 z"
       style="fill:#000000;fill-opacity:1;stroke-width:8.14957428"
       inkscape:connector-curvature="0" /></clipPath><clipPath
     clipPathUnits="userSpaceOnUse"
     id="clipPath1715"><path
       id="path1717"
       d="M 267.93013,321.82958 C 229.13105,342.41985 176.7879,342.79649 125.01856,318.37039 83.097173,298.72654 48.913,265.75046 27.571242,228.7103 c 10.543721,9.44731 22.96377,17.15174 36.322251,23.97658 53.384517,27.40359 107.735537,27.61291 146.790677,5.34385 -0.0234,-0.0253 -0.0396,-0.0423 -0.0547,-0.0672 C 157.78091,214.3429 113.54072,158.33476 80.718695,112.71874 73.730039,105.21126 68.62106,95.957747 63.479507,87.610646 103.777,127.15103 168.17526,177.53142 191.23168,191.97096 143.3104,137.64083 101.26892,70.833192 103.01195,72.706248 c 75.938,82.542192 147.68146,130.471142 147.68146,130.471142 2.37781,1.45552 4.21,2.66309 5.6801,3.73532 1.7334,-3.98249 3.27691,-8.12673 4.60604,-12.43361 14.34189,-45.73853 1.74246,-98.798498 -28.40004,-143.412973 71.76795,47.020602 112.25394,131.912753 91.62476,201.008983 -0.54005,1.86433 -1.1199,3.70281 -1.73934,5.50718 0.20268,0.26011 0.40505,0.52832 0.60714,0.80472 34.59725,46.59319 22.9106,94.23759 18.70801,85.01826 -18.26929,-39.16411 -55.07281,-28.71196 -73.84913,-21.57485 z"
       style="fill:#000000;fill-opacity:1;stroke-width:8.14957428"
       inkscape:connector-curvature="0" /></clipPath></defs><sodipodi:namedview
   pagecolor="#ffffff"
   bordercolor="#666666"
   borderopacity="1"
   objecttolerance="10"
   gridtolerance="10"
   guidetolerance="10"
   inkscape:pageopacity="0"
   inkscape:pageshadow="2"
   inkscape:window-width="1920"
   inkscape:window-height="1141"
   id="namedview901"
   showgrid="false"
   inkscape:zoom="2"
   inkscape:cx="196.1377"
   inkscape:cy="125.2859"
   inkscape:window-x="0"
   inkscape:window-y="0"
   inkscape:window-maximized="1"
   inkscape:current-layer="Calque_1" />
<style
   type="text/css"
   id="style888">
	.st0{fill:#F3F3F3;}
	.st1{fill:#F35325;}
	.st2{fill:#81BC06;}
	.st3{fill:#05A6F0;}
	.st4{fill:#FFBA08;}
</style>
<rect
   class="st0"
   width="439"
   height="439"
   id="rect890"
   clip-path="url(#clipPath1715)"
   x="0"
   y="0"
   style="fill:none"
   transform="translate(-27.571242,-51.066127)" />
<rect
   x="17"
   y="17"
   class="st1"
   width="194"
   height="194"
   id="rect892"
   clip-path="url(#clipPath1711)"
   style="fill:#f35325"
   transform="translate(-27.571242,-51.066127)" />
<rect
   x="231.5"
   y="15"
   class="st2"
   width="194"
   height="194"
   id="rect894"
   style="fill:#81bc06"
   clip-path="url(#clipPath1707)"
   transform="translate(-27.571242,-51.066127)" />
<rect
   x="17"
   y="228"
   class="st3"
   width="194"
   height="194"
   id="rect896"
   clip-path="url(#clipPath1703)"
   style="fill:#05a6f0"
   transform="translate(-27.571242,-51.066127)" />
<rect
   x="228"
   y="228"
   class="st4"
   width="194"
   height="194"
   id="rect898"
   clip-path="url(#clipPath1699)"
   style="fill:#ffba08"
   transform="translate(-27.571242,-51.066127)" />
</svg>